<svg width="97" height="39" xmlns="http://www.w3.org/2000/svg"><path d="M3.362 30.75H0V0h3.362v30.75zM22.956 7.831c3.226 0 5.966 1.162 8.22 3.485 2.256 2.323 3.383 5.111 3.383 8.364 0 3.253-1.114 6.034-3.341 8.343-2.228 2.31-4.982 3.465-8.262 3.465-3.28 0-6.04-1.155-8.282-3.465-2.241-2.31-3.362-5.09-3.362-8.343s1.128-6.04 3.383-8.364c2.255-2.323 5.009-3.485 8.261-3.485zm0 20.418c2.269 0 4.203-.827 5.802-2.48 1.599-1.654 2.398-3.65 2.398-5.986 0-2.338-.813-4.36-2.44-6.069-1.626-1.708-3.553-2.562-5.78-2.562-2.228 0-4.148.854-5.76 2.563-1.613 1.708-2.42 3.737-2.42 6.088 0 2.35.78 4.346 2.337 5.986 1.558 1.64 3.513 2.46 5.863 2.46zm42.309-2.747c0 2.952-.253 5.139-.759 6.56-.506 1.421-1.27 2.624-2.296 3.608-1.025.984-2.255 1.729-3.69 2.234-1.435.506-3.013.759-4.735.759-5.822 0-9.704-2.46-11.644-7.38h3.608c1.585 2.843 4.223 4.264 7.913 4.264 1.694 0 3.211-.328 4.55-.984 1.34-.656 2.283-1.53 2.83-2.624.546-1.093.82-2.774.82-5.043v-.205a10.487 10.487 0 0 1-3.854 2.747 12 12 0 0 1-4.674.943c-3.226 0-5.925-1.107-8.098-3.321-2.173-2.214-3.246-4.824-3.218-7.831-.028-3.143 1.107-5.829 3.403-8.056C47.717 8.944 50.443 7.83 53.6 7.83s5.91 1.285 8.262 3.854v-3.28h3.403v17.097zm-3.28-6.273c0-2.35-.786-4.291-2.358-5.822-1.572-1.53-3.492-2.296-5.76-2.296-2.406 0-4.422.827-6.048 2.48-1.626 1.654-2.44 3.574-2.44 5.761 0 2.187.78 4.038 2.338 5.555 1.558 1.518 3.553 2.276 5.986 2.276 2.432 0 4.42-.745 5.965-2.235 1.544-1.49 2.317-3.396 2.317-5.719zM84.859 7.831c3.225 0 5.965 1.162 8.22 3.485 2.255 2.323 3.383 5.111 3.383 8.364 0 3.253-1.114 6.034-3.342 8.343-2.227 2.31-4.981 3.465-8.261 3.465-3.28 0-6.04-1.155-8.282-3.465-2.242-2.31-3.362-5.09-3.362-8.343s1.127-6.04 3.382-8.364c2.255-2.323 5.01-3.485 8.262-3.485zm0 20.418c2.268 0 4.202-.827 5.801-2.48 1.6-1.654 2.399-3.65 2.399-5.986 0-2.338-.813-4.36-2.44-6.069-1.626-1.708-3.553-2.562-5.78-2.562-2.228 0-4.149.854-5.761 2.563-1.613 1.708-2.42 3.737-2.42 6.088 0 2.35.78 4.346 2.338 5.986 1.558 1.64 3.512 2.46 5.863 2.46z" fill="#FFF" fill-rule="evenodd"/></svg>