<svg width="35" height="35" xmlns="http://www.w3.org/2000/svg"><path d="M3.243 0h28.595a3 3 0 0 1 3 3v28.595a3 3 0 0 1-3 3H3.243a3 3 0 0 1-3-3V3a3 3 0 0 1 3-3zm23.64 15.204c.096-.61.156-1.277.171-2.026-.006-3.212-1.544-4.348-1.84-4.881.436-2.434-.072-3.54-.308-3.92-.872-.309-3.033.799-4.213 1.578-1.925-.563-5.993-.508-7.518.146C10.36 4.086 8.87 4.394 8.87 4.394s-.962 1.725-.254 4.248C7.69 9.822 7 10.656 7 12.868c0 .53.032 1.03.088 1.512.798 4.191 4.12 6 7.384 6.311-.49.373-1.08 1.08-1.162 1.897-.617.4-1.858.531-2.824.228-1.352-.428-1.87-3.105-3.896-2.723-.438.082-.35.371.029.617.617.4 1.198.898 1.646 1.962.344.817 1.068 2.276 3.356 2.276.908 0 1.544-.107 1.544-.107s.017 2.082.017 2.894c0 .934-1.261 1.196-1.261 1.645 0 .178.417.195.753.195.663 0 2.043-.552 2.043-1.523 0-.772.012-3.366.012-3.82 0-.993.533-1.309.533-1.309s.065 5.298-.129 6.009c-.226.835-.636.716-.636 1.088 0 .555 1.659.135 2.209-1.079.426-.948.235-6.144.235-6.144l.444-.01s.005 2.38-.01 3.467c-.016 1.126-.133 2.55.536 3.221.44.442 1.785 1.217 1.785.509 0-.41-.942-.75-.942-1.862v-5.125c.572 0 .69 1.685.69 1.685l.207 3.129s-.137 1.142 1.234 1.619c.484.169 1.52.215 1.568-.07.049-.284-1.247-.706-1.26-1.59-.006-.538.025-.853.025-3.195 0-2.34-.315-3.206-1.41-3.896 3.178-.326 6.479-1.744 7.074-5.475z" fill="#FFF" fill-rule="evenodd"/></svg>