<svg width="35" height="35" xmlns="http://www.w3.org/2000/svg"><path d="M3.297 0h28.595a3 3 0 0 1 3 3v28.595a3 3 0 0 1-3 3H3.297a3 3 0 0 1-3-3V3a3 3 0 0 1 3-3zM14.33 11.68a.158.158 0 0 0-.035-.058l-5.95-2.981c-.164-.082-.327-.175-.513-.175-.315 0-.454.268-.454.56v13.276c0 .35.256.768.582.931l5.415 2.714a.851.851 0 0 0 .385.093c.396 0 .57-.338.57-.699v-13.66zm.746 1.177v6.987l6.219 3.098-6.22-10.085zm13.171.21l-6.29 10.213 5.136 2.562c.163.093.35.152.548.152.384 0 .605-.268.605-.653V13.066zm-.035-1.398a.079.079 0 0 0-.046-.07l-6.3-3.144a.68.68 0 0 0-.303-.07.703.703 0 0 0-.606.326l-3.773 6.137 4.542 7.384c.465-.745 6.486-10.517 6.486-10.563z" fill="#FFF" fill-rule="evenodd"/></svg>