<svg width="35" height="35" xmlns="http://www.w3.org/2000/svg"><path d="M3.324 0H31.92a3 3 0 0 1 3 3v28.595a3 3 0 0 1-3 3H3.324a3 3 0 0 1-3-3V3a3 3 0 0 1 3-3zm18.372 26.81a.727.727 0 0 0 .288-.058.763.763 0 0 0 .452-.563l2.954-15.757a.755.755 0 0 0 .013-.209.769.769 0 0 0-.224-.49.745.745 0 0 0-.821-.159l-17.505 7.08a.766.766 0 0 0-.475.716.765.765 0 0 0 .485.71l4.603 1.789 1.289 4.962c.063.244.24.44.473.525a.744.744 0 0 0 .695-.099l2.566-1.876 4.784 3.298a.745.745 0 0 0 .423.132z" fill="#FFF" fill-rule="evenodd"/></svg>