<svg width="34" height="35" xmlns="http://www.w3.org/2000/svg"><path d="M30.357.865H3.373A3.383 3.383 0 0 0 0 4.238v26.984a3.383 3.383 0 0 0 3.373 3.373h26.984a3.383 3.383 0 0 0 3.373-3.373V4.238A3.383 3.383 0 0 0 30.357.865zm-3.88 12.311c-.168 7.758-5.059 13.155-12.48 13.492-3.035.169-5.227-.843-7.251-2.024 2.192.338 5.06-.506 6.577-1.855-2.192-.168-3.541-1.349-4.216-3.204.675.169 1.35 0 1.855 0-2.024-.675-3.373-1.855-3.541-4.554.505.338 1.18.506 1.855.506-1.518-.843-2.53-4.047-1.35-6.071 2.193 2.361 4.891 4.385 9.276 4.722-1.18-4.722 5.228-7.252 7.758-4.047 1.18-.17 2.024-.675 2.867-1.012-.337 1.18-1.012 1.855-1.855 2.53.843-.17 1.686-.338 2.361-.675-.169.843-1.012 1.518-1.855 2.192z" fill="#FFF"/></svg>