<svg xmlns="http://www.w3.org/2000/svg" xmlns:xlink="http://www.w3.org/1999/xlink" width="77" height="80"><defs><path id="a" d="M77.03 339c3.04 0 3.66 1.86 4.9 3.63l7.62 10.94c.91 1.36 2.84 2.86 2.27 5.55-.85 4.1-7.3 6.71-8.96 10.73-.75 1.81-.21 4.37.43 5.83 1.42 3.24 4.44 5.28 6.54 7.89l4.77 5.4c2.91 2.35 8.28 10.23 14.23 7.96 2.65-1 5.53-4.39 7.47-6.32 1-1.01 2.33-2.74 4.62-2.35 2.67.45 4.14 2.31 5.98 3.62l11.1 8.18v6.4c-.3.86-3.71 4.15-4.55 4.83-4.95 3.97-9.79 9.55-19.43 7.1l-5.05-1.63c-7.12-3.02-12.45-7.8-18.07-12.3l-4.77-4.54c-2.5-2.01-5.03-4.61-7.04-7.11l-2.99-3.13c-4.26-5.36-8.84-10.42-12.1-16.77a29.29 29.29 0 0 1-2.2-5.98c-.74-2.88-1.22-7.84-.28-10.87 1.98-6.45 9.62-14.47 15.5-17.06z"/></defs><use xlink:href="#a" transform="translate(-61 -339)"/></svg>