<svg xmlns="http://www.w3.org/2000/svg" width="19.25" height="20"><path d="M4.007.004A1.362 1.362 0 0 1 5.234.91l1.9 2.737a1.677 1.677 0 0 1 .569 1.386c-.215 1.025-1.826 1.68-2.241 2.683a2.08 2.08 0 0 0 .107 1.457 9.49 9.49 0 0 0 1.639 1.977L8.4 12.501c.729.588 2.069 2.557 3.557 1.99a6.9 6.9 0 0 0 1.868-1.582 1.308 1.308 0 0 1 1.156-.587 3.536 3.536 0 0 1 1.494.906l2.775 2.043v1.6a7.048 7.048 0 0 1-1.138 1.208c-1.237.994-2.446 2.387-4.856 1.777l-1.263-.408a19.375 19.375 0 0 1-4.518-3.075l-1.192-1.137a12.08 12.08 0 0 1-1.761-1.777l-.747-.782A25.426 25.426 0 0 1 .75 8.481a7.324 7.324 0 0 1-.551-1.493 5.958 5.958 0 0 1-.071-2.719A8.336 8.336 0 0 1 4.007.004z" fill-rule="evenodd"/></svg>